<svg width="35" height="35" viewBox="0 0 35 35" fill="none" xmlns="http://www.w3.org/2000/svg">
<mask id="mask0_548_441" style="mask-type:alpha" maskUnits="userSpaceOnUse" x="0" y="0" width="35" height="35">
<rect width="35" height="35" fill="#D9D9D9"/>
</mask>
<g mask="url(#mask0_548_441)">
<path d="M28.5833 30.625L19.3958 21.4375C18.6667 22.0208 17.8281 22.4826 16.8802 22.8229C15.9323 23.1632 14.9236 23.3333 13.8542 23.3333C11.2049 23.3333 8.96292 22.416 7.12833 20.5815C5.29278 18.7459 4.375 16.5035 4.375 13.8542C4.375 11.2049 5.29278 8.96243 7.12833 7.12688C8.96292 5.29229 11.2049 4.375 13.8542 4.375C16.5035 4.375 18.7459 5.29229 20.5815 7.12688C22.416 8.96243 23.3333 11.2049 23.3333 13.8542C23.3333 14.9236 23.1632 15.9323 22.8229 16.8802C22.4826 17.8281 22.0208 18.6667 21.4375 19.3958L30.625 28.5833L28.5833 30.625ZM13.8542 20.4167C15.6771 20.4167 17.2268 19.7789 18.5033 18.5033C19.7789 17.2268 20.4167 15.6771 20.4167 13.8542C20.4167 12.0312 19.7789 10.4815 18.5033 9.205C17.2268 7.92944 15.6771 7.29167 13.8542 7.29167C12.0312 7.29167 10.4815 7.92944 9.205 9.205C7.92944 10.4815 7.29167 12.0312 7.29167 13.8542C7.29167 15.6771 7.92944 17.2268 9.205 18.5033C10.4815 19.7789 12.0312 20.4167 13.8542 20.4167Z" fill="white"/>
</g>
</svg>
