<svg width="41" height="41" viewBox="0 0 41 41" fill="none" xmlns="http://www.w3.org/2000/svg">
<circle cx="20.5" cy="20.5" r="20.5" fill="#D9D9D9" fill-opacity="0.7"/>
<path d="M15.52 31.96C15.3067 31.96 15.12 31.8933 14.96 31.76C14.8 31.6267 14.72 31.4267 14.72 31.16V29.4C14.72 29.08 14.7867 28.8267 14.92 28.64C15.08 28.4533 15.32 28.2667 15.64 28.08L26.32 20.76L15.64 13.44C15.32 13.2267 15.08 13.0267 14.92 12.84C14.7867 12.6533 14.72 12.4 14.72 12.08V10.32C14.72 10.0533 14.8 9.85333 14.96 9.72C15.12 9.58667 15.3067 9.52 15.52 9.52C15.68 9.52 15.8533 9.57333 16.04 9.68C16.2267 9.76 16.3733 9.84 16.48 9.92L29.04 18.56C29.4667 18.8533 29.76 19.1333 29.92 19.4C30.1067 19.6667 30.2 20 30.2 20.4V21.08C30.2 21.4533 30.1067 21.7867 29.92 22.08C29.76 22.3467 29.4667 22.6267 29.04 22.92L16.48 31.56C16.3733 31.64 16.2267 31.7333 16.04 31.84C15.8533 31.92 15.68 31.96 15.52 31.96Z" fill="white"/>
</svg>
