<svg width="41" height="41" viewBox="0 0 41 41" fill="none" xmlns="http://www.w3.org/2000/svg">
<circle r="20.5" transform="matrix(-1 0 0 1 20.5 20.5)" fill="#D9D9D9" fill-opacity="0.7"/>
<path d="M25.48 31.96C25.6933 31.96 25.88 31.8933 26.04 31.76C26.2 31.6267 26.28 31.4267 26.28 31.16V29.4C26.28 29.08 26.2133 28.8267 26.08 28.64C25.92 28.4533 25.68 28.2667 25.36 28.08L14.68 20.76L25.36 13.44C25.68 13.2267 25.92 13.0267 26.08 12.84C26.2133 12.6533 26.28 12.4 26.28 12.08V10.32C26.28 10.0533 26.2 9.85333 26.04 9.72C25.88 9.58667 25.6933 9.52 25.48 9.52C25.32 9.52 25.1467 9.57333 24.96 9.68C24.7733 9.76 24.6267 9.84 24.52 9.92L11.96 18.56C11.5333 18.8533 11.24 19.1333 11.08 19.4C10.8933 19.6667 10.8 20 10.8 20.4V21.08C10.8 21.4533 10.8933 21.7867 11.08 22.08C11.24 22.3467 11.5333 22.6267 11.96 22.92L24.52 31.56C24.6267 31.64 24.7733 31.7333 24.96 31.84C25.1467 31.92 25.32 31.96 25.48 31.96Z" fill="white"/>
</svg>
